# xmcd
# 
# Track frame offsets:
#     150
#     18230
#     34903
#     55632
#     76532
#     89543
#     102328
#     112650
#     125642
#     135572
#     148336
#     169781
#     184392
# 
# Disc length: 2793
# 
# Revision: 1
# Processed by: cddbd v1.5.2PL0 Copyright (c) Steve Scherf et al.
# Submitted via: fre:ac v1.0.27
# 
DISCID=a80ae70d
DTITLE=Various Artist - Hit Me! - A Tribute To JB
DYEAR=2007
DGENRE=Funk
TTITLE0=THE J.B.'s REUNION - There's A Price To Pay To Live In Paradaise
TTITLE1=BOOTSY COLLINS and THE BOOTSY'S NEW RUBBER BAND - Bootsy? (What's The Name Of This Town?)
TTITLE2=OSAKA MONAURAIL - Quick Sand
TTITLE3=MARVA WHITNEY - I Am What I Am (Parts 1&2)
TTITLE4=BOBBY WILLIAMS - Funky Super Fly (Part 1)
TTITLE5=AFRICAN MUSIC MACHINE - Mr. Brown
TTITLE6=DUMAS KING - Loose Eel
TTITLE7=LITTLE ROYAL - Soul Train
TTITLE8=ROBERT WARD - All Proud Races
TTITLE9=THE SWEET VANDALS - Papa's Got A Brand New Bag
TTITLE10=BOBBY RADCLIFF - Night Train
TTITLE11=IKE and TINA TURNER - Please, Please, Please
TTITLE12=THE J.B.'s REUNION - MIstakes And All
EXTD=BSR No.74
EXTT0=There's A Price To Pay To Live In Paradaise
EXTT1=Bootsy? (What's The Name Of This Town?)
EXTT2=Quick Sand
EXTT3=I Am What I Am (Parts 1&2)
EXTT4=Funky Super Fly (Part 1)
EXTT5=Mr. Brown
EXTT6=Loose Eel
EXTT7=Soul Train
EXTT8=All Proud Races
EXTT9=Papa's Got A Brand New Bag
EXTT10=Night Train
EXTT11=Please, Please, Please
EXTT12=MIstakes And All
PLAYORDER=
